<svg width="81" height="81" viewBox="0 0 81 81" fill="none" xmlns="http://www.w3.org/2000/svg">
<rect x="0.5" y="0.5" width="80" height="80" rx="40" fill="#C12929" fill-opacity="0.45"/>
<path fill-rule="evenodd" clip-rule="evenodd" d="M35.6401 21.5814C35.6401 21.2946 35.7541 21.0196 35.9569 20.8167C36.1597 20.6139 36.4348 20.5 36.7216 20.5H41.0473C41.3342 20.5 41.6092 20.6139 41.812 20.8167C42.0148 21.0196 42.1288 21.2946 42.1288 21.5814C42.1288 21.8683 42.0148 22.1433 41.812 22.3461C41.6092 22.5489 41.3342 22.6629 41.0473 22.6629H36.7216C36.4348 22.6629 36.1597 22.5489 35.9569 22.3461C35.7541 22.1433 35.6401 21.8683 35.6401 21.5814Z" fill="#FFF4F4"/>
<path fill-rule="evenodd" clip-rule="evenodd" d="M38.8845 20.5C39.1713 20.5 39.4464 20.6139 39.6492 20.8167C39.852 21.0196 39.9659 21.2946 39.9659 21.5814V25.9072C39.9659 26.194 39.852 26.4691 39.6492 26.6719C39.4464 26.8747 39.1713 26.9886 38.8845 26.9886C38.5977 26.9886 38.3226 26.8747 38.1198 26.6719C37.917 26.4691 37.803 26.194 37.803 25.9072V21.5814C37.803 21.2946 37.917 21.0196 38.1198 20.8167C38.3226 20.6139 38.5977 20.5 38.8845 20.5ZM21.5814 35.6402C21.8683 35.6402 22.1433 35.7541 22.3461 35.9569C22.5489 36.1597 22.6629 36.4348 22.6629 36.7216V41.0474C22.6629 41.3342 22.5489 41.6092 22.3461 41.8121C22.1433 42.0149 21.8683 42.1288 21.5814 42.1288C21.2946 42.1288 21.0196 42.0149 20.8167 41.8121C20.6139 41.6092 20.5 41.3342 20.5 41.0474V36.7216C20.5 36.4348 20.6139 36.1597 20.8167 35.9569C21.0196 35.7541 21.2946 35.6402 21.5814 35.6402Z" fill="#FFF4F4"/>
<path fill-rule="evenodd" clip-rule="evenodd" d="M20.5 38.8844C20.5 38.5976 20.6139 38.3225 20.8167 38.1197C21.0196 37.9169 21.2946 37.803 21.5814 37.803H25.9072C26.194 37.803 26.4691 37.9169 26.6719 38.1197C26.8747 38.3225 26.9886 38.5976 26.9886 38.8844C26.9886 39.1712 26.8747 39.4463 26.6719 39.6491C26.4691 39.8519 26.194 39.9658 25.9072 39.9658H21.5814C21.2946 39.9658 21.0196 39.8519 20.8167 39.6491C20.6139 39.4463 20.5 39.1712 20.5 38.8844ZM48.8251 24.3553C48.9255 24.2547 49.0448 24.1749 49.1761 24.1205C49.3074 24.0661 49.4481 24.0381 49.5902 24.0381C49.7323 24.0381 49.873 24.0661 50.0043 24.1205C50.1356 24.1749 50.2549 24.2547 50.3553 24.3553L53.4136 27.4136C53.6166 27.6163 53.7306 27.8914 53.7307 28.1783C53.7308 28.4652 53.617 28.7403 53.4142 28.9433C53.2114 29.1462 52.9363 29.2602 52.6494 29.2603C52.3626 29.2605 52.0874 29.1466 51.8845 28.9438L48.8251 25.8844C48.6223 25.6816 48.5085 25.4066 48.5085 25.1198C48.5085 24.8331 48.6223 24.5581 48.8251 24.3553Z" fill="#FFF4F4"/>
<path fill-rule="evenodd" clip-rule="evenodd" d="M51.8832 25.8855C52.0856 26.0883 52.1993 26.363 52.1993 26.6495C52.1993 26.936 52.0856 27.2108 51.8832 27.4136L48.8249 30.473C48.621 30.67 48.3478 30.779 48.0642 30.7765C47.7807 30.774 47.5094 30.6603 47.3089 30.4598C47.1084 30.2593 46.9947 29.988 46.9922 29.7045C46.9898 29.4209 47.0988 29.1478 47.2958 28.9438L50.3552 25.8844C50.558 25.6817 50.833 25.5678 51.1197 25.5678C51.4065 25.5678 51.6815 25.6817 51.8843 25.8844L51.8832 25.8855ZM28.9437 24.3553C29.1465 24.5581 29.2603 24.8331 29.2603 25.1198C29.2603 25.4066 29.1465 25.6816 28.9437 25.8844L25.8843 28.9438C25.6814 29.1466 25.4062 29.2605 25.1194 29.2603C24.8325 29.2602 24.5574 29.1462 24.3546 28.9433C24.1518 28.7403 24.038 28.4652 24.0381 28.1783C24.0382 27.8914 24.1522 27.6163 24.3552 27.4136L27.4135 24.3553C27.5139 24.2547 27.6332 24.1749 27.7645 24.1205C27.8958 24.0661 28.0365 24.0381 28.1786 24.0381C28.3207 24.0381 28.4614 24.0661 28.5927 24.1205C28.724 24.1749 28.8433 24.2547 28.9437 24.3553Z" fill="#FFF4F4"/>
<path fill-rule="evenodd" clip-rule="evenodd" d="M25.8856 25.8854C26.0883 25.683 26.3631 25.5693 26.6496 25.5693C26.9361 25.5693 27.2109 25.683 27.4136 25.8854L30.473 28.9437C30.67 29.1477 30.779 29.4209 30.7766 29.7044C30.7741 29.988 30.6604 30.2592 30.4599 30.4597C30.2594 30.6602 29.9881 30.774 29.7046 30.7764C29.421 30.7789 29.1478 30.6699 28.9439 30.4729L25.8845 27.4135C25.6817 27.2107 25.5679 26.9357 25.5679 26.6489C25.5679 26.3622 25.6817 26.0871 25.8845 25.8843L25.8856 25.8854ZM28.9439 53.4135C28.8434 53.514 28.7242 53.5938 28.5929 53.6482C28.4616 53.7026 28.3209 53.7307 28.1788 53.7307C28.0366 53.7307 27.8959 53.7026 27.7646 53.6482C27.6334 53.5938 27.5141 53.514 27.4136 53.4135L24.3553 50.3552C24.1583 50.1512 24.0493 49.878 24.0518 49.5945C24.0543 49.3109 24.168 49.0397 24.3685 48.8392C24.569 48.6387 24.8403 48.525 25.1238 48.5225C25.4074 48.52 25.6805 48.629 25.8845 48.826L28.9439 51.8843C29.1466 52.0871 29.2605 52.3622 29.2605 52.6489C29.2605 52.9357 29.1466 53.2107 28.9439 53.4135Z" fill="#FFF4F4"/>
<path fill-rule="evenodd" clip-rule="evenodd" d="M25.8854 51.8836C25.683 51.6808 25.5693 51.406 25.5693 51.1195C25.5693 50.833 25.683 50.5582 25.8854 50.3555L28.9437 47.2961C29.1467 47.0933 29.4218 46.9794 29.7087 46.9795C29.9956 46.9796 30.2707 47.0937 30.4734 47.2966C30.6762 47.4995 30.7901 47.7747 30.79 48.0616C30.7899 48.3485 30.6758 48.6235 30.4729 48.8263L27.4135 51.8846C27.2107 52.0874 26.9357 52.2013 26.6489 52.2013C26.3622 52.2013 26.0871 52.0874 25.8843 51.8846L25.8854 51.8836ZM35.0993 34.5589C34.6691 34.5589 34.2565 34.7298 33.9523 35.034C33.648 35.3382 33.4771 35.7508 33.4771 36.181C33.4771 36.6113 33.648 37.0239 33.9523 37.3281C34.2565 37.6323 34.6691 37.8032 35.0993 37.8032C35.5295 37.8032 35.9421 37.6323 36.2463 37.3281C36.5506 37.0239 36.7215 36.6113 36.7215 36.181C36.7215 35.7508 36.5506 35.3382 36.2463 35.034C35.9421 34.7298 35.5295 34.5589 35.0993 34.5589ZM31.3143 36.181C31.3143 35.1772 31.713 34.2144 32.4229 33.5046C33.1327 32.7948 34.0954 32.396 35.0993 32.396C36.1032 32.396 37.0659 32.7948 37.7757 33.5046C38.4856 34.2144 38.8843 35.1772 38.8843 36.181C38.8843 37.1849 38.4856 38.1476 37.7757 38.8575C37.0659 39.5673 36.1032 39.9661 35.0993 39.9661C34.0954 39.9661 33.1327 39.5673 32.4229 38.8575C31.713 38.1476 31.3143 37.1849 31.3143 36.181ZM48.0766 41.0475C46.2123 41.0475 44.4243 41.7881 43.1061 43.1064C41.7878 44.4246 41.0472 46.2126 41.0472 48.0769C41.0472 49.9412 41.7878 51.7291 43.1061 53.0474C44.4243 54.3657 46.2123 55.1062 48.0766 55.1062C49.9409 55.1062 51.7288 54.3657 53.0471 53.0474C54.3654 51.7291 55.1059 49.9412 55.1059 48.0769C55.1059 46.2126 54.3654 44.4246 53.0471 43.1064C51.7288 41.7881 49.9409 41.0475 48.0766 41.0475ZM38.8843 48.0769C38.8843 45.6389 39.8528 43.3009 41.5767 41.577C43.3006 39.8531 45.6386 38.8846 48.0766 38.8846C50.5145 38.8846 52.8526 39.8531 54.5765 41.577C56.3004 43.3009 57.2688 45.6389 57.2688 48.0769C57.2688 50.5148 56.3004 52.8529 54.5765 54.5768C52.8526 56.3007 50.5145 57.2691 48.0766 57.2691C45.6386 57.2691 43.3006 56.3007 41.5767 54.5768C39.8528 52.8529 38.8843 50.5148 38.8843 48.0769Z" fill="#FFF4F4"/>
<path fill-rule="evenodd" clip-rule="evenodd" d="M53.2601 53.2601C53.4629 53.0574 53.7379 52.9435 54.0247 52.9435C54.3114 52.9435 54.5864 53.0574 54.7892 53.2601L60.1964 58.6673C60.3934 58.8713 60.5024 59.1444 60.5 59.428C60.4975 59.7115 60.3838 59.9828 60.1833 60.1833C59.9828 60.3838 59.7115 60.4975 59.428 60.5C59.1444 60.5024 58.8713 60.3934 58.6673 60.1964L53.2601 54.7892C53.0574 54.5864 52.9435 54.3114 52.9435 54.0247C52.9435 53.7379 53.0574 53.4629 53.2601 53.2601ZM38.8845 28.0701C32.9117 28.0701 28.0701 32.9117 28.0701 38.8845C28.0701 44.1836 31.8833 48.5958 36.9163 49.5205C37.0581 49.5438 37.1937 49.5951 37.3155 49.6714C37.4372 49.7477 37.5424 49.8476 37.6252 49.965C37.7079 50.0825 37.7663 50.2153 37.7971 50.3556C37.828 50.4959 37.8305 50.641 37.8047 50.7823C37.7788 50.9236 37.725 51.0583 37.6465 51.1787C37.568 51.299 37.4663 51.4024 37.3473 51.483C37.2284 51.5636 37.0946 51.6196 36.9537 51.6479C36.8129 51.6762 36.6678 51.6761 36.527 51.6477C30.4839 50.5381 25.9072 45.2466 25.9072 38.8845C25.9072 31.7178 31.7178 25.9072 38.8845 25.9072C45.2466 25.9072 50.5381 30.485 51.6477 36.527C51.6936 36.8066 51.628 37.0932 51.4648 37.3249C51.3016 37.5567 51.054 37.7151 50.7752 37.7661C50.4964 37.8172 50.2088 37.7567 49.9741 37.5978C49.7394 37.4388 49.5765 37.1941 49.5205 36.9163C48.5958 31.8843 44.1846 28.0701 38.8845 28.0701Z" fill="#FFF4F4"/>
<rect x="0.75" y="0.75" width="79.5" height="79.5" rx="39.75" stroke="#D00A0A" stroke-opacity="0.8" stroke-width="0.5"/>
</svg>
