<svg width="108" height="108" viewBox="0 0 108 108" fill="none" xmlns="http://www.w3.org/2000/svg">
<g filter="url(#filter0_d_383_987)">
<path d="M18.161 20.4009C18.5573 19.4537 19.3027 18.6951 20.2428 18.2823L51.225 4.67776C52.2119 4.24438 53.332 4.22767 54.3315 4.63143L88.1407 18.2897C89.1464 18.6959 89.9439 19.4932 90.3506 20.4988L103.402 52.7696C103.786 53.7193 103.791 54.7802 103.416 55.7335L90.3746 88.8885C89.9547 89.9558 89.0969 90.7916 88.019 91.1835L54.1944 103.482C53.2757 103.816 52.2665 103.802 51.3574 103.442L20.3687 91.1957C19.3529 90.7942 18.5455 89.9949 18.1338 88.9832L4.62208 55.7776C4.22365 54.7984 4.22903 53.7013 4.63703 52.7261L18.161 20.4009Z" fill="#F0CCCC"/>
<path d="M21.6832 23.9084C22.0795 22.9612 22.8249 22.2026 23.765 21.7898L51.3481 9.67776C52.3351 9.24438 53.4552 9.22767 54.4546 9.63143L84.5692 21.7971C85.5749 22.2034 86.3725 23.0007 86.7792 24.0062L98.4018 52.7448C98.7859 53.6945 98.791 54.7553 98.416 55.7087L86.8032 85.2318C86.3833 86.2991 85.5255 87.1349 84.4476 87.5268L54.3175 98.4816C53.3989 98.8156 52.3897 98.8016 51.4806 98.4424L23.8908 87.539C22.8751 87.1375 22.0676 86.3382 21.656 85.3265L9.62208 55.7527C9.22365 54.7735 9.22903 53.6765 9.63703 52.7012L21.6832 23.9084Z" fill="white"/>
<path d="M39.0098 57.416C39.0098 58.68 38.5298 59.752 37.5698 60.632C36.6258 61.512 35.2498 62.024 33.4418 62.168V64.88H31.9058V62.168C30.7378 62.104 29.6258 61.888 28.5698 61.52C27.5298 61.136 26.6978 60.656 26.0738 60.08L26.9618 58.208C27.5378 58.736 28.2658 59.176 29.1458 59.528C30.0258 59.864 30.9458 60.064 31.9058 60.128V54.56C30.7858 54.288 29.8498 53.992 29.0978 53.672C28.3618 53.352 27.7378 52.88 27.2258 52.256C26.7298 51.632 26.4818 50.816 26.4818 49.808C26.4818 48.544 26.9378 47.472 27.8498 46.592C28.7778 45.712 30.1298 45.2 31.9058 45.056V42.32H33.4418V45.032C34.3538 45.064 35.2338 45.208 36.0818 45.464C36.9458 45.72 37.6898 46.064 38.3138 46.496L37.5218 48.416C36.2258 47.6 34.8658 47.152 33.4418 47.072V52.664C34.6098 52.952 35.5698 53.256 36.3218 53.576C37.0738 53.88 37.7058 54.344 38.2178 54.968C38.7458 55.576 39.0098 56.392 39.0098 57.416ZM28.8338 49.712C28.8338 50.4 29.0978 50.936 29.6258 51.32C30.1538 51.704 30.9138 52.024 31.9058 52.28V47.096C30.8818 47.224 30.1138 47.528 29.6018 48.008C29.0898 48.472 28.8338 49.04 28.8338 49.712ZM33.4418 60.104C34.5138 60.008 35.3138 59.736 35.8418 59.288C36.3858 58.824 36.6578 58.248 36.6578 57.56C36.6578 56.856 36.3778 56.32 35.8178 55.952C35.2738 55.568 34.4818 55.232 33.4418 54.944V60.104ZM53.1537 45.2V46.832L46.3617 62H43.8177L50.4657 47.288H42.7857V50.288H40.4817V45.2H53.1537ZM65.1076 53.192C66.0676 53.56 66.8036 54.088 67.3156 54.776C67.8276 55.464 68.0836 56.288 68.0836 57.248C68.0836 58.256 67.8116 59.136 67.2676 59.888C66.7236 60.624 65.9476 61.192 64.9396 61.592C63.9316 61.992 62.7476 62.192 61.3876 62.192C60.0436 62.192 58.8676 61.992 57.8596 61.592C56.8676 61.192 56.0996 60.624 55.5556 59.888C55.0116 59.136 54.7396 58.256 54.7396 57.248C54.7396 56.288 54.9876 55.464 55.4836 54.776C55.9956 54.088 56.7316 53.56 57.6916 53.192C56.9236 52.824 56.3396 52.336 55.9396 51.728C55.5396 51.12 55.3396 50.4 55.3396 49.568C55.3396 48.64 55.5876 47.832 56.0836 47.144C56.5956 46.456 57.3076 45.928 58.2196 45.56C59.1316 45.192 60.1876 45.008 61.3876 45.008C62.6036 45.008 63.6676 45.192 64.5796 45.56C65.5076 45.928 66.2196 46.456 66.7156 47.144C67.2276 47.832 67.4836 48.64 67.4836 49.568C67.4836 50.384 67.2756 51.104 66.8596 51.728C66.4596 52.336 65.8756 52.824 65.1076 53.192ZM61.3876 46.952C60.2516 46.952 59.3556 47.2 58.6996 47.696C58.0436 48.176 57.7156 48.832 57.7156 49.664C57.7156 50.496 58.0356 51.152 58.6756 51.632C59.3316 52.112 60.2356 52.352 61.3876 52.352C62.5556 52.352 63.4676 52.112 64.1236 51.632C64.7956 51.152 65.1316 50.496 65.1316 49.664C65.1316 48.832 64.7876 48.176 64.0996 47.696C63.4276 47.2 62.5236 46.952 61.3876 46.952ZM61.3876 60.248C62.7156 60.248 63.7636 59.976 64.5316 59.432C65.2996 58.872 65.6836 58.12 65.6836 57.176C65.6836 56.248 65.2996 55.52 64.5316 54.992C63.7636 54.448 62.7156 54.176 61.3876 54.176C60.0596 54.176 59.0196 54.448 58.2676 54.992C57.5156 55.52 57.1396 56.248 57.1396 57.176C57.1396 58.12 57.5156 58.872 58.2676 59.432C59.0196 59.976 60.0596 60.248 61.3876 60.248ZM75.0809 51.896C77.4809 51.896 79.2409 52.352 80.3609 53.264C81.4969 54.16 82.0649 55.392 82.0649 56.96C82.0649 57.952 81.8249 58.848 81.3449 59.648C80.8809 60.432 80.1689 61.056 79.2089 61.52C78.2649 61.968 77.0969 62.192 75.7049 62.192C74.5209 62.192 73.3769 62.016 72.2729 61.664C71.1689 61.296 70.2569 60.792 69.5369 60.152L70.6409 58.256C71.2169 58.8 71.9529 59.24 72.8489 59.576C73.7449 59.896 74.6889 60.056 75.6809 60.056C76.9449 60.056 77.9209 59.792 78.6089 59.264C79.3129 58.72 79.6649 57.984 79.6649 57.056C79.6649 56.048 79.2809 55.288 78.5129 54.776C77.7449 54.248 76.4329 53.984 74.5769 53.984H70.7609L71.6489 45.2H81.1289V47.288H73.6649L73.2089 51.896H75.0809Z" fill="#D12806"/>
</g>
<defs>
<filter id="filter0_d_383_987" x="0.327148" y="0.340225" width="107.366" height="107.382" filterUnits="userSpaceOnUse" color-interpolation-filters="sRGB">
<feFlood flood-opacity="0" result="BackgroundImageFix"/>
<feColorMatrix in="SourceAlpha" type="matrix" values="0 0 0 0 0 0 0 0 0 0 0 0 0 0 0 0 0 0 127 0" result="hardAlpha"/>
<feOffset/>
<feGaussianBlur stdDeviation="2"/>
<feComposite in2="hardAlpha" operator="out"/>
<feColorMatrix type="matrix" values="0 0 0 0 0 0 0 0 0 0 0 0 0 0 0 0 0 0 0.16 0"/>
<feBlend mode="normal" in2="BackgroundImageFix" result="effect1_dropShadow_383_987"/>
<feBlend mode="normal" in="SourceGraphic" in2="effect1_dropShadow_383_987" result="shape"/>
</filter>
</defs>
</svg>
