<svg width="17" height="8" viewBox="0 0 17 8" fill="none" xmlns="http://www.w3.org/2000/svg">
<path d="M0.108451 3.11138V4.88861C0.108451 4.97501 0.136221 5.04597 0.191759 5.10151C0.247297 5.15705 0.318263 5.18482 0.404656 5.18482H11.9566V7.25825C11.9566 7.38784 12.0153 7.47732 12.1325 7.52669C12.2498 7.57606 12.3578 7.56063 12.4565 7.48041L16.011 4.24066C16.0727 4.17896 16.1035 4.10799 16.1035 4.02777C16.1035 3.94137 16.0727 3.86732 16.011 3.80561L12.4565 0.528847C12.3578 0.442454 12.2498 0.423941 12.1325 0.473308C12.0153 0.528847 11.9566 0.618325 11.9566 0.741744V2.81518H0.404656C0.318263 2.81518 0.247297 2.84295 0.191759 2.89849C0.136221 2.95402 0.108451 3.02499 0.108451 3.11138Z" fill="#D00A0A" fill-opacity="0.8"/>
</svg>
