<svg width="1512" height="500" viewBox="0 0 1512 500" fill="none" xmlns="http://www.w3.org/2000/svg">
<path d="M0 8.00001C0 4.22877 0 2.34315 1.17157 1.17157C2.34315 0 4.22876 0 8 0H1504C1507.77 0 1509.66 0 1510.83 1.17157C1512 2.34315 1512 4.22876 1512 8V310.093C1512 313.12 1512 314.634 1511.14 315.723C1510.28 316.813 1508.81 317.166 1505.87 317.872L748.39 499.547C747.449 499.772 746.979 499.885 746.5 499.884C746.022 499.882 745.552 499.767 744.613 499.536L6.08935 317.898C3.16563 317.179 1.70377 316.82 0.851884 315.733C0 314.646 0 313.141 0 310.13V8.00001Z" fill="#FFF1F1"/>
</svg>
