<svg width="80" height="80" viewBox="0 0 80 80" fill="none" xmlns="http://www.w3.org/2000/svg">
<rect width="80" height="80" rx="40" fill="#C12929" fill-opacity="0.45"/>
<path fill-rule="evenodd" clip-rule="evenodd" d="M35.1406 21.0814C35.1406 20.7946 35.2546 20.5196 35.4574 20.3167C35.6602 20.1139 35.9352 20 36.2221 20H40.5478C40.8346 20 41.1097 20.1139 41.3125 20.3167C41.5153 20.5196 41.6293 20.7946 41.6293 21.0814C41.6293 21.3683 41.5153 21.6433 41.3125 21.8461C41.1097 22.0489 40.8346 22.1629 40.5478 22.1629H36.2221C35.9352 22.1629 35.6602 22.0489 35.4574 21.8461C35.2546 21.6433 35.1406 21.3683 35.1406 21.0814Z" fill="#FFF4F4"/>
<path fill-rule="evenodd" clip-rule="evenodd" d="M38.3845 20C38.6713 20 38.9464 20.1139 39.1492 20.3167C39.352 20.5196 39.4659 20.7946 39.4659 21.0814V25.4072C39.4659 25.694 39.352 25.9691 39.1492 26.1719C38.9464 26.3747 38.6713 26.4886 38.3845 26.4886C38.0977 26.4886 37.8226 26.3747 37.6198 26.1719C37.417 25.9691 37.303 25.694 37.303 25.4072V21.0814C37.303 20.7946 37.417 20.5196 37.6198 20.3167C37.8226 20.1139 38.0977 20 38.3845 20V20ZM21.0814 35.1402C21.3683 35.1402 21.6433 35.2541 21.8461 35.4569C22.0489 35.6597 22.1629 35.9348 22.1629 36.2216V40.5474C22.1629 40.8342 22.0489 41.1092 21.8461 41.3121C21.6433 41.5149 21.3683 41.6288 21.0814 41.6288C20.7946 41.6288 20.5196 41.5149 20.3167 41.3121C20.1139 41.1092 20 40.8342 20 40.5474V36.2216C20 35.9348 20.1139 35.6597 20.3167 35.4569C20.5196 35.2541 20.7946 35.1402 21.0814 35.1402Z" fill="#FFF4F4"/>
<path fill-rule="evenodd" clip-rule="evenodd" d="M20 38.3845C20 38.0977 20.1139 37.8226 20.3167 37.6198C20.5196 37.417 20.7946 37.3031 21.0814 37.3031H25.4072C25.694 37.3031 25.9691 37.417 26.1719 37.6198C26.3747 37.8226 26.4886 38.0977 26.4886 38.3845C26.4886 38.6713 26.3747 38.9464 26.1719 39.1492C25.9691 39.352 25.694 39.466 25.4072 39.466H21.0814C20.7946 39.466 20.5196 39.352 20.3167 39.1492C20.1139 38.9464 20 38.6713 20 38.3845ZM48.3251 23.8554C48.4255 23.7548 48.5448 23.6751 48.6761 23.6206C48.8074 23.5662 48.9481 23.5382 49.0902 23.5382C49.2323 23.5382 49.373 23.5662 49.5043 23.6206C49.6356 23.6751 49.7549 23.7548 49.8553 23.8554L52.9136 26.9137C53.1166 27.1165 53.2306 27.3916 53.2307 27.6784C53.2308 27.9653 53.117 28.2405 52.9142 28.4434C52.7114 28.6463 52.4363 28.7604 52.1494 28.7605C51.8626 28.7606 51.5874 28.6467 51.3845 28.4439L48.3251 25.3845C48.1223 25.1817 48.0085 24.9067 48.0085 24.62C48.0085 24.3332 48.1223 24.0582 48.3251 23.8554V23.8554Z" fill="#FFF4F4"/>
<path fill-rule="evenodd" clip-rule="evenodd" d="M51.3832 25.3856C51.5856 25.5884 51.6993 25.8632 51.6993 26.1497C51.6993 26.4361 51.5856 26.7109 51.3832 26.9137L48.3249 29.9731C48.121 30.1701 47.8478 30.2791 47.5642 30.2766C47.2807 30.2742 47.0094 30.1604 46.8089 29.9599C46.6084 29.7594 46.4947 29.4882 46.4922 29.2046C46.4898 28.9211 46.5988 28.6479 46.7958 28.4439L49.8552 25.3845C50.058 25.1818 50.333 25.0679 50.6197 25.0679C50.9065 25.0679 51.1815 25.1818 51.3843 25.3845L51.3832 25.3856ZM28.4437 23.8554C28.6465 24.0582 28.7603 24.3332 28.7603 24.62C28.7603 24.9067 28.6465 25.1817 28.4437 25.3845L25.3843 28.4439C25.1814 28.6467 24.9062 28.7606 24.6194 28.7605C24.3325 28.7604 24.0574 28.6463 23.8546 28.4434C23.6518 28.2405 23.538 27.9653 23.5381 27.6784C23.5382 27.3916 23.6522 27.1165 23.8552 26.9137L26.9135 23.8554C27.0139 23.7548 27.1332 23.6751 27.2645 23.6206C27.3958 23.5662 27.5365 23.5382 27.6786 23.5382C27.8207 23.5382 27.9614 23.5662 28.0927 23.6206C28.224 23.6751 28.3433 23.7548 28.4437 23.8554V23.8554Z" fill="#FFF4F4"/>
<path fill-rule="evenodd" clip-rule="evenodd" d="M25.3856 25.3856C25.5883 25.1832 25.8631 25.0695 26.1496 25.0695C26.4361 25.0695 26.7109 25.1832 26.9136 25.3856L29.973 28.4439C30.17 28.6479 30.279 28.9211 30.2766 29.2046C30.2741 29.4882 30.1604 29.7594 29.9599 29.9599C29.7594 30.1604 29.4881 30.2741 29.2046 30.2766C28.921 30.2791 28.6478 30.1701 28.4439 29.9731L25.3845 26.9137C25.1817 26.7109 25.0679 26.4359 25.0679 26.1491C25.0679 25.8623 25.1817 25.5873 25.3845 25.3845L25.3856 25.3856ZM28.4439 52.9137C28.3434 53.0142 28.2242 53.094 28.0929 53.1484C27.9616 53.2028 27.8209 53.2308 27.6788 53.2308C27.5366 53.2308 27.3959 53.2028 27.2646 53.1484C27.1334 53.094 27.0141 53.0142 26.9136 52.9137L23.8553 49.8554C23.6583 49.6514 23.5493 49.3782 23.5518 49.0947C23.5543 48.8111 23.668 48.5399 23.8685 48.3394C24.069 48.1389 24.3403 48.0251 24.6238 48.0227C24.9074 48.0202 25.1805 48.1292 25.3845 48.3262L28.4439 51.3845C28.6466 51.5873 28.7605 51.8623 28.7605 52.1491C28.7605 52.4359 28.6466 52.7109 28.4439 52.9137V52.9137Z" fill="#FFF4F4"/>
<path fill-rule="evenodd" clip-rule="evenodd" d="M25.3854 51.3834C25.183 51.1806 25.0693 50.9058 25.0693 50.6193C25.0693 50.3328 25.183 50.058 25.3854 49.8553L28.4437 46.7959C28.6467 46.5931 28.9218 46.4793 29.2087 46.4794C29.4956 46.4795 29.7707 46.5935 29.9734 46.7964C30.1762 46.9994 30.2901 47.2745 30.29 47.5614C30.2899 47.8483 30.1758 48.1234 29.9729 48.3261L26.9135 51.3844C26.7107 51.5872 26.4357 51.7011 26.1489 51.7011C25.8622 51.7011 25.5871 51.5872 25.3843 51.3844L25.3854 51.3834ZM34.5993 34.0587C34.1691 34.0587 33.7565 34.2296 33.4523 34.5338C33.148 34.838 32.9771 35.2506 32.9771 35.6809C32.9771 36.1111 33.148 36.5237 33.4523 36.8279C33.7565 37.1321 34.1691 37.303 34.5993 37.303C35.0295 37.303 35.4421 37.1321 35.7463 36.8279C36.0506 36.5237 36.2215 36.1111 36.2215 35.6809C36.2215 35.2506 36.0506 34.838 35.7463 34.5338C35.4421 34.2296 35.0295 34.0587 34.5993 34.0587ZM30.8143 35.6809C30.8143 34.677 31.213 33.7143 31.9229 33.0044C32.6327 32.2946 33.5954 31.8958 34.5993 31.8958C35.6032 31.8958 36.5659 32.2946 37.2757 33.0044C37.9856 33.7143 38.3843 34.677 38.3843 35.6809C38.3843 36.6847 37.9856 37.6474 37.2757 38.3573C36.5659 39.0671 35.6032 39.4659 34.5993 39.4659C33.5954 39.4659 32.6327 39.0671 31.9229 38.3573C31.213 37.6474 30.8143 36.6847 30.8143 35.6809ZM47.5766 40.5473C45.7123 40.5473 43.9243 41.2879 42.6061 42.6062C41.2878 43.9244 40.5472 45.7124 40.5472 47.5767C40.5472 49.441 41.2878 51.2289 42.6061 52.5472C43.9243 53.8655 45.7123 54.6061 47.5766 54.6061C49.4409 54.6061 51.2288 53.8655 52.5471 52.5472C53.8654 51.2289 54.6059 49.441 54.6059 47.5767C54.6059 45.7124 53.8654 43.9244 52.5471 42.6062C51.2288 41.2879 49.4409 40.5473 47.5766 40.5473ZM38.3843 47.5767C38.3843 45.1388 39.3528 42.8007 41.0767 41.0768C42.8006 39.3529 45.1386 38.3845 47.5766 38.3845C50.0145 38.3845 52.3526 39.3529 54.0765 41.0768C55.8004 42.8007 56.7688 45.1388 56.7688 47.5767C56.7688 50.0146 55.8004 52.3527 54.0765 54.0766C52.3526 55.8005 50.0145 56.7689 47.5766 56.7689C45.1386 56.7689 42.8006 55.8005 41.0767 54.0766C39.3528 52.3527 38.3843 50.0146 38.3843 47.5767Z" fill="#FFF4F4"/>
<path fill-rule="evenodd" clip-rule="evenodd" d="M52.7601 52.76C52.9629 52.5573 53.2379 52.4434 53.5247 52.4434C53.8114 52.4434 54.0864 52.5573 54.2892 52.76L59.6964 58.1672C59.8934 58.3712 60.0024 58.6444 60 58.9279C59.9975 59.2115 59.8838 59.4827 59.6833 59.6832C59.4828 59.8837 59.2115 59.9975 58.928 59.9999C58.6444 60.0024 58.3713 59.8934 58.1673 59.6964L52.7601 54.2892C52.5574 54.0864 52.4435 53.8114 52.4435 53.5246C52.4435 53.2378 52.5574 52.9628 52.7601 52.76ZM38.3845 27.57C32.4117 27.57 27.5701 32.4117 27.5701 38.3844C27.5701 43.6835 31.3833 48.0958 36.4163 49.0204C36.558 49.0437 36.6937 49.095 36.8155 49.1714C36.9372 49.2477 37.0424 49.3475 37.1252 49.465C37.2079 49.5824 37.2663 49.7152 37.2971 49.8555C37.328 49.9959 37.3305 50.1409 37.3047 50.2822C37.2788 50.4235 37.225 50.5583 37.1465 50.6786C37.068 50.7989 36.9663 50.9024 36.8473 50.9829C36.7284 51.0635 36.5946 51.1195 36.4537 51.1478C36.3129 51.1761 36.1678 51.176 36.027 51.1476C29.9839 50.038 25.4072 44.7466 25.4072 38.3844C25.4072 31.2177 31.2178 25.4072 38.3845 25.4072C44.7466 25.4072 50.0381 29.9849 51.1477 36.0269C51.1936 36.3066 51.128 36.5931 50.9648 36.8249C50.8016 37.0566 50.554 37.2151 50.2752 37.2661C49.9964 37.3171 49.7088 37.2566 49.4741 37.0977C49.2394 36.9388 49.0765 36.6941 49.0205 36.4162C48.0958 31.3843 43.6846 27.57 38.3845 27.57Z" fill="#FFF4F4"/>
<rect x="0.25" y="0.25" width="79.5" height="79.5" rx="39.75" stroke="#D00A0A" stroke-opacity="0.8" stroke-width="0.5"/>
</svg>
