<svg width="40" height="40" viewBox="0 0 40 40" fill="none" xmlns="http://www.w3.org/2000/svg">
<rect width="40" height="40" rx="20" fill="#F0CCCC" fill-opacity="0.7"/>
<path d="M17.6 28H22.4C26.4 28 28 26.4 28 22.4V17.6C28 13.6 26.4 12 22.4 12H17.6C13.6 12 12 13.6 12 17.6V22.4C12 26.4 13.6 28 17.6 28Z" stroke="#2C0B0B" stroke-width="1.5" stroke-linecap="round" stroke-linejoin="round"/>
<path d="M18.5 25H21.5C24 25 25 24 25 21.5V18.5C25 16 24 15 21.5 15H18.5C16 15 15 16 15 18.5V21.5C15 24 16 25 18.5 25Z" stroke="#2C0B0B" stroke-width="1.5" stroke-linecap="round" stroke-linejoin="round"/>
<path d="M16.0098 12V10" stroke="#2C0B0B" stroke-width="1.5" stroke-linecap="round" stroke-linejoin="round"/>
<path d="M20 12V10" stroke="#2C0B0B" stroke-width="1.5" stroke-linecap="round" stroke-linejoin="round"/>
<path d="M24 12V10" stroke="#2C0B0B" stroke-width="1.5" stroke-linecap="round" stroke-linejoin="round"/>
<path d="M28 16H30" stroke="#2C0B0B" stroke-width="1.5" stroke-linecap="round" stroke-linejoin="round"/>
<path d="M28 20H30" stroke="#2C0B0B" stroke-width="1.5" stroke-linecap="round" stroke-linejoin="round"/>
<path d="M28 24H30" stroke="#2C0B0B" stroke-width="1.5" stroke-linecap="round" stroke-linejoin="round"/>
<path d="M24 28V30" stroke="#2C0B0B" stroke-width="1.5" stroke-linecap="round" stroke-linejoin="round"/>
<path d="M20.0098 28V30" stroke="#2C0B0B" stroke-width="1.5" stroke-linecap="round" stroke-linejoin="round"/>
<path d="M16.0098 28V30" stroke="#2C0B0B" stroke-width="1.5" stroke-linecap="round" stroke-linejoin="round"/>
<path d="M10 16H12" stroke="#2C0B0B" stroke-width="1.5" stroke-linecap="round" stroke-linejoin="round"/>
<path d="M10 20H12" stroke="#2C0B0B" stroke-width="1.5" stroke-linecap="round" stroke-linejoin="round"/>
<path d="M10 24H12" stroke="#2C0B0B" stroke-width="1.5" stroke-linecap="round" stroke-linejoin="round"/>
<rect x="0.25" y="0.25" width="39.5" height="39.5" rx="19.75" stroke="#7D3B3B" stroke-opacity="0.7" stroke-width="0.5"/>
</svg>
