<svg width="81" height="81" viewBox="0 0 81 81" fill="none" xmlns="http://www.w3.org/2000/svg">
<rect x="0.5" y="0.5" width="80" height="80" rx="40" fill="#C12929" fill-opacity="0.45"/>
<path fill-rule="evenodd" clip-rule="evenodd" d="M35.6406 21.5814C35.6406 21.2946 35.7546 21.0196 35.9574 20.8167C36.1602 20.6139 36.4352 20.5 36.7221 20.5H41.0478C41.3346 20.5 41.6097 20.6139 41.8125 20.8167C42.0153 21.0196 42.1293 21.2946 42.1293 21.5814C42.1293 21.8683 42.0153 22.1433 41.8125 22.3461C41.6097 22.5489 41.3346 22.6629 41.0478 22.6629H36.7221C36.4352 22.6629 36.1602 22.5489 35.9574 22.3461C35.7546 22.1433 35.6406 21.8683 35.6406 21.5814Z" fill="#FFF4F4"/>
<path fill-rule="evenodd" clip-rule="evenodd" d="M38.8845 20.5C39.1713 20.5 39.4464 20.6139 39.6492 20.8167C39.852 21.0196 39.9659 21.2946 39.9659 21.5814V25.9072C39.9659 26.194 39.852 26.4691 39.6492 26.6719C39.4464 26.8747 39.1713 26.9886 38.8845 26.9886C38.5977 26.9886 38.3226 26.8747 38.1198 26.6719C37.917 26.4691 37.803 26.194 37.803 25.9072V21.5814C37.803 21.2946 37.917 21.0196 38.1198 20.8167C38.3226 20.6139 38.5977 20.5 38.8845 20.5ZM21.5814 35.6402C21.8683 35.6402 22.1433 35.7541 22.3461 35.9569C22.5489 36.1597 22.6629 36.4348 22.6629 36.7216V41.0474C22.6629 41.3342 22.5489 41.6092 22.3461 41.8121C22.1433 42.0149 21.8683 42.1288 21.5814 42.1288C21.2946 42.1288 21.0196 42.0149 20.8167 41.8121C20.6139 41.6092 20.5 41.3342 20.5 41.0474V36.7216C20.5 36.4348 20.6139 36.1597 20.8167 35.9569C21.0196 35.7541 21.2946 35.6402 21.5814 35.6402Z" fill="#FFF4F4"/>
<path fill-rule="evenodd" clip-rule="evenodd" d="M20.5 38.8845C20.5 38.5977 20.6139 38.3226 20.8167 38.1198C21.0196 37.917 21.2946 37.8031 21.5814 37.8031H25.9072C26.194 37.8031 26.4691 37.917 26.6719 38.1198C26.8747 38.3226 26.9886 38.5977 26.9886 38.8845C26.9886 39.1713 26.8747 39.4464 26.6719 39.6492C26.4691 39.852 26.194 39.966 25.9072 39.966H21.5814C21.2946 39.966 21.0196 39.852 20.8167 39.6492C20.6139 39.4464 20.5 39.1713 20.5 38.8845ZM48.8251 24.3554C48.9255 24.2548 49.0448 24.1751 49.1761 24.1206C49.3074 24.0662 49.4481 24.0382 49.5902 24.0382C49.7323 24.0382 49.873 24.0662 50.0043 24.1206C50.1356 24.1751 50.2549 24.2548 50.3553 24.3554L53.4136 27.4137C53.6166 27.6165 53.7306 27.8916 53.7307 28.1784C53.7308 28.4653 53.617 28.7405 53.4142 28.9434C53.2114 29.1463 52.9363 29.2604 52.6494 29.2605C52.3626 29.2606 52.0874 29.1467 51.8845 28.9439L48.8251 25.8845C48.6223 25.6817 48.5085 25.4067 48.5085 25.12C48.5085 24.8332 48.6223 24.5582 48.8251 24.3554Z" fill="#FFF4F4"/>
<path fill-rule="evenodd" clip-rule="evenodd" d="M51.8832 25.8856C52.0856 26.0884 52.1993 26.3632 52.1993 26.6497C52.1993 26.9361 52.0856 27.2109 51.8832 27.4137L48.8249 30.4731C48.621 30.6701 48.3478 30.7791 48.0642 30.7766C47.7807 30.7742 47.5094 30.6604 47.3089 30.4599C47.1084 30.2594 46.9947 29.9882 46.9922 29.7046C46.9898 29.4211 47.0988 29.1479 47.2958 28.9439L50.3552 25.8845C50.558 25.6818 50.833 25.5679 51.1197 25.5679C51.4065 25.5679 51.6815 25.6818 51.8843 25.8845L51.8832 25.8856ZM28.9437 24.3554C29.1465 24.5582 29.2603 24.8332 29.2603 25.12C29.2603 25.4067 29.1465 25.6817 28.9437 25.8845L25.8843 28.9439C25.6814 29.1467 25.4062 29.2606 25.1194 29.2605C24.8325 29.2604 24.5574 29.1463 24.3546 28.9434C24.1518 28.7405 24.038 28.4653 24.0381 28.1784C24.0382 27.8916 24.1522 27.6165 24.3552 27.4137L27.4135 24.3554C27.5139 24.2548 27.6332 24.1751 27.7645 24.1206C27.8958 24.0662 28.0365 24.0382 28.1786 24.0382C28.3207 24.0382 28.4614 24.0662 28.5927 24.1206C28.724 24.1751 28.8433 24.2548 28.9437 24.3554Z" fill="#FFF4F4"/>
<path fill-rule="evenodd" clip-rule="evenodd" d="M25.8856 25.8855C26.0883 25.6831 26.3631 25.5695 26.6496 25.5695C26.9361 25.5695 27.2109 25.6831 27.4136 25.8855L30.473 28.9439C30.67 29.1478 30.779 29.421 30.7766 29.7045C30.7741 29.9881 30.6604 30.2593 30.4599 30.4598C30.2594 30.6604 29.9881 30.7741 29.7046 30.7766C29.421 30.779 29.1478 30.67 28.9439 30.473L25.8845 27.4136C25.6817 27.2108 25.5679 26.9358 25.5679 26.649C25.5679 26.3623 25.6817 26.0873 25.8845 25.8845L25.8856 25.8855ZM28.9439 53.4136C28.8434 53.5142 28.7242 53.5939 28.5929 53.6483C28.4616 53.7028 28.3209 53.7308 28.1788 53.7308C28.0366 53.7308 27.8959 53.7028 27.7646 53.6483C27.6334 53.5939 27.5141 53.5142 27.4136 53.4136L24.3553 50.3553C24.1583 50.1513 24.0493 49.8782 24.0518 49.5946C24.0543 49.3111 24.168 49.0398 24.3685 48.8393C24.569 48.6388 24.8403 48.5251 25.1238 48.5226C25.4074 48.5201 25.6805 48.6291 25.8845 48.8261L28.9439 51.8845C29.1466 52.0873 29.2605 52.3623 29.2605 52.649C29.2605 52.9358 29.1466 53.2108 28.9439 53.4136Z" fill="#FFF4F4"/>
<path fill-rule="evenodd" clip-rule="evenodd" d="M25.8854 51.8834C25.683 51.6807 25.5693 51.4059 25.5693 51.1194C25.5693 50.8329 25.683 50.5581 25.8854 50.3554L28.9437 47.296C29.1467 47.0932 29.4218 46.9793 29.7087 46.9794C29.9956 46.9795 30.2707 47.0936 30.4734 47.2965C30.6762 47.4994 30.7901 47.7746 30.79 48.0615C30.7899 48.3483 30.6758 48.6234 30.4729 48.8262L27.4135 51.8845C27.2107 52.0872 26.9357 52.2011 26.6489 52.2011C26.3622 52.2011 26.0871 52.0872 25.8843 51.8845L25.8854 51.8834ZM35.0993 34.5588C34.6691 34.5588 34.2565 34.7297 33.9523 35.0339C33.648 35.3381 33.4771 35.7507 33.4771 36.1809C33.4771 36.6111 33.648 37.0237 33.9523 37.328C34.2565 37.6322 34.6691 37.8031 35.0993 37.8031C35.5295 37.8031 35.9421 37.6322 36.2463 37.328C36.5506 37.0237 36.7215 36.6111 36.7215 36.1809C36.7215 35.7507 36.5506 35.3381 36.2463 35.0339C35.9421 34.7297 35.5295 34.5588 35.0993 34.5588ZM31.3143 36.1809C31.3143 35.1771 31.713 34.2143 32.4229 33.5045C33.1327 32.7947 34.0954 32.3959 35.0993 32.3959C36.1032 32.3959 37.0659 32.7947 37.7757 33.5045C38.4856 34.2143 38.8843 35.1771 38.8843 36.1809C38.8843 37.1848 38.4856 38.1475 37.7757 38.8573C37.0659 39.5672 36.1032 39.966 35.0993 39.966C34.0954 39.966 33.1327 39.5672 32.4229 38.8573C31.713 38.1475 31.3143 37.1848 31.3143 36.1809ZM48.0766 41.0474C46.2123 41.0474 44.4243 41.788 43.1061 43.1062C41.7878 44.4245 41.0472 46.2125 41.0472 48.0768C41.0472 49.9411 41.7878 51.729 43.1061 53.0473C44.4243 54.3655 46.2123 55.1061 48.0766 55.1061C49.9409 55.1061 51.7288 54.3655 53.0471 53.0473C54.3654 51.729 55.1059 49.9411 55.1059 48.0768C55.1059 46.2125 54.3654 44.4245 53.0471 43.1062C51.7288 41.788 49.9409 41.0474 48.0766 41.0474ZM38.8843 48.0768C38.8843 45.6388 39.8528 43.3007 41.5767 41.5769C43.3006 39.853 45.6386 38.8845 48.0766 38.8845C50.5145 38.8845 52.8526 39.853 54.5765 41.5769C56.3004 43.3007 57.2688 45.6388 57.2688 48.0768C57.2688 50.5147 56.3004 52.8528 54.5765 54.5767C52.8526 56.3005 50.5145 57.269 48.0766 57.269C45.6386 57.269 43.3006 56.3005 41.5767 54.5767C39.8528 52.8528 38.8843 50.5147 38.8843 48.0768Z" fill="#FFF4F4"/>
<path fill-rule="evenodd" clip-rule="evenodd" d="M53.2601 53.2601C53.4629 53.0574 53.7379 52.9435 54.0247 52.9435C54.3114 52.9435 54.5864 53.0574 54.7892 53.2601L60.1964 58.6673C60.3934 58.8713 60.5024 59.1444 60.5 59.428C60.4975 59.7115 60.3838 59.9828 60.1833 60.1833C59.9828 60.3838 59.7115 60.4975 59.428 60.5C59.1444 60.5024 58.8713 60.3934 58.6673 60.1964L53.2601 54.7892C53.0574 54.5864 52.9435 54.3114 52.9435 54.0247C52.9435 53.7379 53.0574 53.4629 53.2601 53.2601ZM38.8845 28.0701C32.9117 28.0701 28.0701 32.9117 28.0701 38.8845C28.0701 44.1836 31.8833 48.5958 36.9163 49.5205C37.0581 49.5438 37.1937 49.5951 37.3155 49.6714C37.4372 49.7477 37.5424 49.8476 37.6252 49.965C37.7079 50.0825 37.7663 50.2153 37.7971 50.3556C37.828 50.4959 37.8305 50.641 37.8047 50.7823C37.7788 50.9236 37.725 51.0583 37.6465 51.1787C37.568 51.299 37.4663 51.4024 37.3473 51.483C37.2284 51.5636 37.0946 51.6196 36.9537 51.6479C36.8129 51.6762 36.6678 51.6761 36.527 51.6477C30.4839 50.5381 25.9072 45.2466 25.9072 38.8845C25.9072 31.7178 31.7178 25.9072 38.8845 25.9072C45.2466 25.9072 50.5381 30.485 51.6477 36.527C51.6936 36.8066 51.628 37.0932 51.4648 37.3249C51.3016 37.5567 51.054 37.7151 50.7752 37.7661C50.4964 37.8172 50.2088 37.7567 49.9741 37.5978C49.7394 37.4388 49.5765 37.1941 49.5205 36.9163C48.5958 31.8843 44.1846 28.0701 38.8845 28.0701Z" fill="#FFF4F4"/>
<rect x="0.75" y="0.75" width="79.5" height="79.5" rx="39.75" stroke="#D00A0A" stroke-opacity="0.8" stroke-width="0.5"/>
</svg>
