<svg width="96" height="96" viewBox="0 0 96 96" fill="none" xmlns="http://www.w3.org/2000/svg">
<rect width="96" height="96" rx="48" fill="#FFE3E3" fill-opacity="0.5"/>
<path d="M60.0002 38.32C59.8802 38.3 59.7402 38.3 59.6202 38.32C56.8602 38.22 54.6602 35.96 54.6602 33.16C54.6602 30.3 56.9602 28 59.8202 28C62.6802 28 64.9801 30.32 64.9801 33.16C64.9601 35.96 62.7602 38.22 60.0002 38.32Z" stroke="#2C0B0B" stroke-width="1.5" stroke-linecap="round" stroke-linejoin="round"/>
<path d="M57.9399 52.88C60.6799 53.34 63.6999 52.86 65.8199 51.44C68.6399 49.56 68.6399 46.48 65.8199 44.6C63.6799 43.18 60.6199 42.7 57.8799 43.18" stroke="#2C0B0B" stroke-width="1.5" stroke-linecap="round" stroke-linejoin="round"/>
<path d="M35.94 38.32C36.06 38.3 36.2 38.3 36.32 38.32C39.08 38.22 41.28 35.96 41.28 33.16C41.28 30.3 38.98 28 36.12 28C33.26 28 30.96 30.32 30.96 33.16C30.98 35.96 33.18 38.22 35.94 38.32Z" stroke="#2C0B0B" stroke-width="1.5" stroke-linecap="round" stroke-linejoin="round"/>
<path d="M37.9999 52.88C35.2599 53.34 32.2399 52.86 30.1199 51.44C27.2999 49.56 27.2999 46.48 30.1199 44.6C32.2599 43.18 35.3199 42.7 38.0599 43.18" stroke="#2C0B0B" stroke-width="1.5" stroke-linecap="round" stroke-linejoin="round"/>
<path d="M48.0002 53.26C47.8802 53.24 47.7402 53.24 47.6202 53.26C44.8602 53.16 42.6602 50.9 42.6602 48.1C42.6602 45.24 44.9602 42.94 47.8202 42.94C50.6802 42.94 52.9802 45.26 52.9802 48.1C52.9602 50.9 50.7602 53.18 48.0002 53.26Z" stroke="#2C0B0B" stroke-width="1.5" stroke-linecap="round" stroke-linejoin="round"/>
<path d="M42.1804 59.56C39.3604 61.44 39.3604 64.52 42.1804 66.4C45.3804 68.54 50.6204 68.54 53.8204 66.4C56.6404 64.52 56.6404 61.44 53.8204 59.56C50.6404 57.44 45.3804 57.44 42.1804 59.56Z" stroke="#2C0B0B" stroke-width="1.5" stroke-linecap="round" stroke-linejoin="round"/>
<rect x="0.35" y="0.35" width="95.3" height="95.3" rx="47.65" stroke="#674747" stroke-opacity="0.9" stroke-width="0.7"/>
</svg>
